<svg width="452" height="382" viewBox="0 0 452 382" fill="none" xmlns="http://www.w3.org/2000/svg">
<g style="mix-blend-mode:darken">
<mask id="path-1-inside-1" fill="white">
<path d="M114.753 381.546H0L111.753 198.546C111.753 198.546 156.213 269.805 161.253 283.046C166.294 296.286 165.709 300.651 161.253 309.046L114.753 381.546Z"/>
<path d="M222.253 200.546L170.253 295.046C173.812 288.305 167.948 278.869 165.253 273.546C162.559 268.223 3.25339 7.54591 3.25339 7.54591C-0.300402 1.48443 0.105576 -0.323972 6.25339 0.0459065H113.253C115.571 -0.0416709 117.226 2.46355 120.089 6.79647L120.253 7.04591L222.753 174.546C224.801 182.554 225.43 191.099 222.253 200.546Z"/>
</mask>
<path d="M114.753 381.546H0L111.753 198.546C111.753 198.546 156.213 269.805 161.253 283.046C166.294 296.286 165.709 300.651 161.253 309.046L114.753 381.546Z" stroke="#88CDFF" stroke-width="48" mask="url(#path-1-inside-1)"/>
<path d="M222.253 200.546L170.253 295.046C173.812 288.305 167.948 278.869 165.253 273.546C162.559 268.223 3.25339 7.54591 3.25339 7.54591C-0.300402 1.48443 0.105576 -0.323972 6.25339 0.0459065H113.253C115.571 -0.0416709 117.226 2.46355 120.089 6.79647L120.253 7.04591L222.753 174.546C224.801 182.554 225.43 191.099 222.253 200.546Z" stroke="#88CDFF" stroke-width="48" mask="url(#path-1-inside-1)"/>
</g>
<g style="mix-blend-mode:darken">
<mask id="path-2-inside-2" fill="white">
<path d="M337 0.0458984H451.753L340 183.046C340 183.046 295.541 111.786 290.5 98.5459C285.459 85.3053 286.044 80.9405 290.5 72.5459L337 0.0458984Z"/>
<path d="M229.5 181.046L281.5 86.5459C277.941 93.2863 283.805 102.723 286.5 108.046C289.195 113.369 448.5 374.046 448.5 374.046C452.054 380.107 451.648 381.916 445.5 381.546H338.5C336.182 381.633 334.527 379.128 331.665 374.795L331.5 374.546L229 207.046C226.953 199.038 226.323 190.492 229.5 181.046Z"/>
</mask>
<path d="M337 0.0458984H451.753L340 183.046C340 183.046 295.541 111.786 290.5 98.5459C285.459 85.3053 286.044 80.9405 290.5 72.5459L337 0.0458984Z" stroke="#88CDFF" stroke-width="48" mask="url(#path-2-inside-2)"/>
<path d="M229.5 181.046L281.5 86.5459C277.941 93.2863 283.805 102.723 286.5 108.046C289.195 113.369 448.5 374.046 448.5 374.046C452.054 380.107 451.648 381.916 445.5 381.546H338.5C336.182 381.633 334.527 379.128 331.665 374.795L331.5 374.546L229 207.046C226.953 199.038 226.323 190.492 229.5 181.046Z" stroke="#88CDFF" stroke-width="48" mask="url(#path-2-inside-2)"/>
</g>
</svg>
